<svg width="61" height="43" viewBox="0 0 61 43" fill="none" xmlns="http://www.w3.org/2000/svg">
    <path d="M25.9694 0.0307099C24.5397 0.148575 23.1366 0.547795 21.9578 1.17134C21.5129 1.40707 20.7486 1.91655 20.3417 2.24353C19.6269 2.82145 18.7105 3.87843 18.1781 4.74151C17.5355 5.77948 17.2313 6.50568 16.7826 8.05694C16.6609 8.49038 16.5393 8.88579 16.5165 8.93902C16.4518 9.0759 16.3339 9.10632 15.7027 9.12913C15.3909 9.14054 15.0259 9.17856 14.8928 9.20897C14.0486 9.41048 13.5163 10.0568 13.5163 10.8895C13.5163 11.1442 13.5924 11.3914 13.676 11.399C13.7026 11.4028 14.2007 11.4066 14.7787 11.4104C15.3567 11.4142 15.8396 11.4256 15.851 11.437C15.8624 11.4446 15.2464 13.7791 14.4821 16.6231C13.7178 19.467 12.9764 22.2388 12.8319 22.7825C12.5353 23.8965 12.3946 24.3223 12.1778 24.7557C12.06 24.9877 11.9269 25.4363 11.5542 26.8279C10.1435 32.0938 9.5123 34.0215 8.59211 35.8997C8.17383 36.7514 7.91146 37.1772 7.49699 37.6563C6.72129 38.565 5.88094 38.9604 4.71359 38.9604C3.97591 38.9604 3.41694 38.8159 2.86939 38.4851C2.71349 38.3939 2.53857 38.314 2.48534 38.314C2.4169 38.314 2.32564 38.2494 2.17734 38.0935C1.95299 37.8578 1.85413 37.6943 1.75146 37.3711C1.6602 37.105 1.54993 37.0441 1.18109 37.0669C0.724796 37.0974 0.371167 37.3103 0.146821 37.6943C-0.111747 38.1277 -0.0166853 39.3558 0.336944 40.1504C0.82366 41.253 1.94159 42.1085 3.30667 42.4203C3.93408 42.561 4.2725 42.5914 5.30297 42.5876C6.67566 42.5876 7.61867 42.4545 8.59211 42.1313C9.83171 41.7245 10.7785 41.1352 11.7329 40.1809C13.2311 38.679 14.4479 36.3978 15.6685 32.782C16.2731 31.0026 16.6343 29.7593 17.5697 26.25C17.912 24.9573 18.3911 23.1931 18.6306 22.3338C19.1934 20.3035 19.7143 18.353 20.703 14.608C21.1441 12.9388 21.5319 11.5397 21.5623 11.5054C21.6156 11.4446 21.7563 11.437 22.9388 11.4256C24.0758 11.4104 24.2887 11.399 24.4674 11.3419C25.0378 11.1556 25.3914 10.8705 25.612 10.4256C25.7374 10.1671 25.7412 10.1481 25.7412 9.69564C25.7412 9.30403 25.7298 9.22038 25.6728 9.16335C25.6082 9.09491 25.38 9.09491 22.5244 9.12913C22.4483 9.12913 22.3418 9.09871 22.2848 9.06449C22.1555 8.98085 22.1555 8.84777 22.281 8.536C22.3304 8.40293 22.4673 7.9809 22.5814 7.59308C23.0453 6.01521 23.4902 5.01906 24.0948 4.20161C24.8096 3.23588 25.5663 2.79103 26.5017 2.78723C27.1215 2.78723 27.6273 2.93171 27.8858 3.18265C28.2851 3.57046 28.2205 4.29286 27.6729 5.67302C27.4295 6.28516 27.4333 6.33079 27.7375 6.47907C28.5285 6.86308 29.6122 6.98475 30.4069 6.77943C31.6427 6.46386 32.4374 5.57797 32.6655 4.27385C32.8214 3.38036 32.5325 2.23212 31.9773 1.54014C31.5818 1.04587 30.7605 0.570608 29.9696 0.369097C28.7718 0.0687309 27.1748 -0.0681446 25.9694 0.0307099Z" fill="#000"/>
    <path d="M36.963 4.34628C35.3698 4.57061 34.2062 5.15993 33.0198 6.33858C32.4343 6.9203 32.1034 7.32713 31.6129 8.05713C29.5026 11.2015 27.8827 16.3457 26.5442 24.1514C26.1906 26.2007 26.164 26.4022 26.1678 27.1741C26.1678 28.5504 26.5138 29.4895 27.3085 30.2576C27.8028 30.7404 28.3124 31.0294 29.1337 31.2955C29.9284 31.5503 30.3239 31.6035 31.4646 31.6035C32.2175 31.5997 32.594 31.5845 32.9476 31.5351C36.1835 31.075 39.0277 29.8355 41.2978 27.8889C41.6705 27.5695 41.6743 27.5695 41.7693 27.8204C41.7959 27.8927 41.9062 28.1246 42.0089 28.3337C42.7846 29.9002 44.0888 30.9001 45.9748 31.3716C46.7239 31.5617 47.146 31.6035 48.2145 31.5997C49.2716 31.5997 49.7355 31.5541 50.6063 31.3716C52.8535 30.8963 54.8992 29.7557 56.6066 28.0257C58.2112 26.4022 59.4014 24.467 60.0706 22.4024C60.7741 20.2276 60.8463 17.9388 60.2645 16.186C59.5154 13.9238 57.8081 12.5892 55.0551 12.1102C54.6217 12.0341 54.4353 12.0265 53.4429 12.0265C52.4657 12.0265 52.2489 12.0379 51.7736 12.1102C49.5872 12.4524 47.7012 13.3573 45.9634 14.8971C44.1611 16.5016 42.7618 18.6003 41.9632 20.9196C41.5374 22.1477 41.3396 23.121 41.2788 24.2693C41.237 25.0107 41.2027 25.0943 40.7769 25.4593C40.351 25.8243 39.754 26.235 39.2141 26.5467C38.176 27.1361 36.6398 27.6759 35.5827 27.8204C35.0846 27.8889 34.1606 27.8508 33.7651 27.7482C32.7194 27.4706 32.2099 26.8167 32.2175 25.7483C32.2175 25.2882 32.3848 24.1894 32.4913 23.9537C32.5293 23.8624 32.8525 23.4252 33.2062 22.9804C36.4078 18.9539 38.5334 15.7298 40.081 12.555C40.9252 10.8251 41.4119 9.38026 41.5982 8.05333C41.6552 7.65411 41.659 7.52103 41.6248 7.19025C41.4841 5.89754 40.8377 5.05727 39.6247 4.58581C39.1114 4.38811 38.7387 4.32347 38.0239 4.30446C37.5714 4.29305 37.2558 4.30446 36.963 4.34628ZM38.1722 7.79858C38.3623 7.93926 38.4003 8.09515 38.3737 8.61604C38.3509 9.11411 38.2596 9.49052 37.906 10.5665C37.3623 12.2242 36.4078 14.437 35.4686 16.205C34.5788 17.8817 32.8069 20.8474 32.7346 20.7789C32.7156 20.7561 33.4115 17.6574 33.7081 16.4712C34.4229 13.5778 35.3393 10.8289 36.0238 9.50953C36.5789 8.44114 37.0276 7.87082 37.4231 7.72254C37.6474 7.6389 38.0125 7.67692 38.1722 7.79858ZM54.1844 15.0986C55.0894 15.4066 55.5685 15.9883 55.9069 17.2012C56.0058 17.5624 56.0096 17.6042 56.0058 18.4673C56.002 19.1821 55.9867 19.4672 55.9183 19.9007C55.7168 21.2238 55.2909 22.5013 54.6026 23.8662C53.4657 26.1095 51.9333 27.6341 50.3401 28.1094C49.8838 28.2463 49.1727 28.2767 48.7506 28.1854C47.5909 27.9269 46.8114 26.9231 46.4425 25.2122C46.3247 24.6723 46.3019 23.6039 46.3893 22.9119C46.6365 20.9386 47.2905 19.2809 48.416 17.7867C49.3705 16.5168 50.4998 15.6499 51.709 15.2545C52.0398 15.148 52.2223 15.1062 52.8345 14.9922C52.8877 14.9845 53.1425 14.9807 53.4049 14.9845C53.8041 14.996 53.9296 15.015 54.1844 15.0986Z" fill="#000"/>
</svg>